<svg width="983" height="22" viewBox="0 0 983 22" fill="none" xmlns="http://www.w3.org/2000/svg">
<path d="M580.482 10.8H574V19.6H590.5V2H607V15.2H599.339" stroke="#D9D9D9" stroke-width="2.93333"/>
<path d="M558.482 10.8H552V19.6H568.5V2H585V15.2H577.339" stroke="#D9D9D9" stroke-width="2.93333"/>
<path d="M536.482 10.8H530V19.6H546.5V2H563V15.2H555.339" stroke="#D9D9D9" stroke-width="2.93333"/>
<path d="M514.482 10.8H508V19.6H524.5V2H541V15.2H533.339" stroke="#D9D9D9" stroke-width="2.93333"/>
<path d="M492.482 10.8H486V19.6H502.5V2H519V15.2H511.339" stroke="#D9D9D9" stroke-width="2.93333"/>
<path d="M602.482 10.8H596V19.6H612.5V2H629V15.2H621.339" stroke="#D9D9D9" stroke-width="2.93333"/>
<path d="M624.482 10.8H618V19.6H634.5V2H651V15.2H643.339" stroke="#D9D9D9" stroke-width="2.93333"/>
<path d="M646.482 10.8H640V19.6H656.5V2H673V15.2H665.339" stroke="#D9D9D9" stroke-width="2.93333"/>
<path d="M668.482 10.8H662V19.6H678.5V2H695V15.2H687.339" stroke="#D9D9D9" stroke-width="2.93333"/>
<path d="M690.482 10.8H684V19.6H700.5V2H717V15.2H709.339" stroke="#D9D9D9" stroke-width="2.93333"/>
<path d="M712.482 10.8H706V19.6H722.5V2H739V15.2H731.339" stroke="#D9D9D9" stroke-width="2.93333"/>
<path d="M734.482 10.8H728V19.6H744.5V2H761V15.2H753.339" stroke="#D9D9D9" stroke-width="2.93333"/>
<path d="M756.482 10.8H750V19.6H766.5V2H783V15.2H775.339" stroke="#D9D9D9" stroke-width="2.93333"/>
<path d="M778.482 10.8H772V19.6H788.5V2H805V15.2H797.339" stroke="#D9D9D9" stroke-width="2.93333"/>
<path d="M800.482 10.8H794V19.6H810.5V2H827V15.2H819.339" stroke="#D9D9D9" stroke-width="2.93333"/>
<path d="M822.482 10.8H816V19.6H832.5V2H849V15.2H841.339" stroke="#D9D9D9" stroke-width="2.93333"/>
<path d="M844.482 10.8H838V19.6H854.5V2H871V15.2H863.339" stroke="#D9D9D9" stroke-width="2.93333"/>
<path d="M866.482 10.8H860V19.6H876.5V2H893V15.2H885.339" stroke="#D9D9D9" stroke-width="2.93333"/>
<path d="M888.482 10.8H882V19.6H898.5V2H915V15.2H907.339" stroke="#D9D9D9" stroke-width="2.93333"/>
<path d="M910.482 10.8H904V19.6H920.5V2H937V15.2H929.339" stroke="#D9D9D9" stroke-width="2.93333"/>
<path d="M932.482 10.8001H926V19.6001H942.5V2.00006H959V15.2001H951.339" stroke="#D9D9D9" stroke-width="2.93333"/>
<path d="M954.482 10.8001H948V19.6001H964.5V2.00012H981V15.2001H973.339" stroke="#D9D9D9" stroke-width="2.93333"/>
<path d="M96.4821 10.8H90V19.6H106.5V2H123V15.2H115.339" stroke="#D9D9D9" stroke-width="2.93333"/>
<path d="M74.4821 10.8H68V19.6H84.5V2H101V15.2H93.3393" stroke="#D9D9D9" stroke-width="2.93333"/>
<path d="M52.4821 10.8H46V19.6H62.5V2H79V15.2H71.3393" stroke="#D9D9D9" stroke-width="2.93333"/>
<path d="M30.4821 10.8H24V19.6H40.5V2H57V15.2H49.3393" stroke="#D9D9D9" stroke-width="2.93333"/>
<path d="M8.48214 10.8H2V19.6H18.5V2H35V15.2H27.3393" stroke="#D9D9D9" stroke-width="2.93333"/>
<path d="M118.482 10.8H112V19.6H128.5V2H145V15.2H137.339" stroke="#D9D9D9" stroke-width="2.93333"/>
<path d="M140.482 10.8H134V19.6H150.5V2H167V15.2H159.339" stroke="#D9D9D9" stroke-width="2.93333"/>
<path d="M162.482 10.8H156V19.6H172.5V2H189V15.2H181.339" stroke="#D9D9D9" stroke-width="2.93333"/>
<path d="M184.482 10.8H178V19.6H194.5V2H211V15.2H203.339" stroke="#D9D9D9" stroke-width="2.93333"/>
<path d="M206.482 10.8H200V19.6H216.5V2H233V15.2H225.339" stroke="#D9D9D9" stroke-width="2.93333"/>
<path d="M228.482 10.8H222V19.6H238.5V2H255V15.2H247.339" stroke="#D9D9D9" stroke-width="2.93333"/>
<path d="M250.482 10.8H244V19.6H260.5V2H277V15.2H269.339" stroke="#D9D9D9" stroke-width="2.93333"/>
<path d="M272.482 10.8H266V19.6H282.5V2H299V15.2H291.339" stroke="#D9D9D9" stroke-width="2.93333"/>
<path d="M294.482 10.8H288V19.6H304.5V2H321V15.2H313.339" stroke="#D9D9D9" stroke-width="2.93333"/>
<path d="M316.482 10.8H310V19.6H326.5V2H343V15.2H335.339" stroke="#D9D9D9" stroke-width="2.93333"/>
<path d="M338.482 10.8H332V19.6H348.5V2H365V15.2H357.339" stroke="#D9D9D9" stroke-width="2.93333"/>
<path d="M360.482 10.8H354V19.6H370.5V2H387V15.2H379.339" stroke="#D9D9D9" stroke-width="2.93333"/>
<path d="M382.482 10.8H376V19.6H392.5V2H409V15.2H401.339" stroke="#D9D9D9" stroke-width="2.93333"/>
<path d="M404.482 10.8H398V19.6H414.5V2H431V15.2H423.339" stroke="#D9D9D9" stroke-width="2.93333"/>
<path d="M426.482 10.8H420V19.6H436.5V2H453V15.2H445.339" stroke="#D9D9D9" stroke-width="2.93333"/>
<path d="M448.482 10.8001H442V19.6001H458.5V2.00006H475V15.2001H467.339" stroke="#D9D9D9" stroke-width="2.93333"/>
<path d="M470.482 10.8001H464V19.6001H480.5V2.00012H497V15.2001H489.339" stroke="#D9D9D9" stroke-width="2.93333"/>
</svg>
