<svg width="430" height="21" viewBox="0 0 430 21" fill="none" xmlns="http://www.w3.org/2000/svg">
<path d="M52.4821 10.8H46V19.6H62.5V2H79V15.2H71.3393" stroke="#1E1E1E" stroke-width="2.93333"/>
<path d="M30.4821 10.8H24V19.6H40.5V2H57V15.2H49.3393" stroke="#1E1E1E" stroke-width="2.93333"/>
<path d="M8.48214 10.8H2V19.6H18.5V2H35V15.2H27.3393" stroke="#1E1E1E" stroke-width="2.93333"/>
<path d="M-13.5179 10.8H-20V19.6H-3.5V2H13V15.2H5.33929" stroke="#1E1E1E" stroke-width="2.93333"/>
<path d="M74.4821 10.8H68V19.6H84.5V1.99997H101V15.2H93.3393" stroke="#1E1E1E" stroke-width="2.93333"/>
<path d="M96.4821 10.8H90V19.6H106.5V1.99997H123V15.2H115.339" stroke="#1E1E1E" stroke-width="2.93333"/>
<path d="M118.482 10.8H112V19.6H128.5V1.99997H145V15.2H137.339" stroke="#1E1E1E" stroke-width="2.93333"/>
<path d="M140.482 10.8H134V19.6H150.5V1.99997H167V15.2H159.339" stroke="#1E1E1E" stroke-width="2.93333"/>
<path d="M162.482 10.8H156V19.6H172.5V1.99997H189V15.2H181.339" stroke="#1E1E1E" stroke-width="2.93333"/>
<path d="M184.482 10.8H178V19.6H194.5V1.99997H211V15.2H203.339" stroke="#1E1E1E" stroke-width="2.93333"/>
<path d="M206.482 10.8H200V19.6H216.5V1.99997H233V15.2H225.339" stroke="#1E1E1E" stroke-width="2.93333"/>
<path d="M228.482 10.8H222V19.6H238.5V1.99997H255V15.2H247.339" stroke="#1E1E1E" stroke-width="2.93333"/>
<path d="M250.482 10.8H244V19.6H260.5V1.99997H277V15.2H269.339" stroke="#1E1E1E" stroke-width="2.93333"/>
<path d="M272.482 10.8H266V19.6H282.5V1.99997H299V15.2H291.339" stroke="#1E1E1E" stroke-width="2.93333"/>
<path d="M294.482 10.8H288V19.6H304.5V1.99997H321V15.2H313.339" stroke="#1E1E1E" stroke-width="2.93333"/>
<path d="M316.482 10.8H310V19.6H326.5V1.99997H343V15.2H335.339" stroke="#1E1E1E" stroke-width="2.93333"/>
<path d="M338.482 10.8H332V19.6H348.5V1.99997H365V15.2H357.339" stroke="#1E1E1E" stroke-width="2.93333"/>
<path d="M360.482 10.8H354V19.6H370.5V1.99997H387V15.2H379.339" stroke="#1E1E1E" stroke-width="2.93333"/>
<path d="M382.482 10.8H376V19.6H392.5V2H409V15.2H401.339" stroke="#1E1E1E" stroke-width="2.93333"/>
<path d="M404.482 10.8H398V19.6H414.5V2.00003H431V15.2H423.339" stroke="#1E1E1E" stroke-width="2.93333"/>
<path d="M426.482 10.8001H420V19.6001H436.5V2.00006H453V15.2001H445.339" stroke="#1E1E1E" stroke-width="2.93333"/>
</svg>
